<svg xmlns="http://www.w3.org/2000/svg" xmlns:xlink="http://www.w3.org/1999/xlink" viewBox="0 0 640 512">
  <!-- Main body - light gray -->
  <path d="M32 224h32v192H32a31.962 31.962 0 0 1-32-32V256a31.962 31.962 0 0 1 32-32z" fill="#ebebef"/>
  <!-- Central body - light gray -->
  <path d="M544 176v272a64.063 64.063 0 0 1-64 64H160a64.063 64.063 0 0 1-64-64V176a79.974 79.974 0 0 1 80-80h112V32a32 32 0 0 1 64 0v64h112a79.974 79.974 0 0 1 80 80z" fill="#ebebef"/>
  <!-- Left eye - blue -->
  <circle cx="252" cy="256" r="40" fill="#3b82f6"/>
  <!-- Right eye - green -->
  <circle cx="388" cy="256" r="40" fill="#10b981"/>
  <!-- Left button panel - purple -->
  <rect x="224" y="384" width="64" height="32" rx="4" fill="#8b5cf6"/>
  <!-- Center button - orange -->
  <rect x="320" y="384" width="64" height="32" rx="4" fill="#f97316"/>
  <!-- Right button panel - pink -->
  <rect x="416" y="384" width="64" height="32" rx="4" fill="#ec4899"/>
  <!-- Right speaker - light gray -->
  <path d="M608 224v128a31.962 31.962 0 0 1-32 32h-32V224h32a31.962 31.962 0 0 1 32 32z" fill="#ebebef"/>
  <!-- Antenna head - gradient blue to purple -->
  <rect x="288" y="32" width="64" height="64" rx="8" fill="url(#gradient1)"/>

  <!-- Define gradients -->
  <defs>
    <linearGradient id="gradient1" x1="0%" y1="0%" x2="100%" y2="100%">
      <stop offset="0%" style="stop-color:#3b82f6;stop-opacity:1" />
      <stop offset="100%" style="stop-color:#8b5cf6;stop-opacity:1" />
    </linearGradient>
  </defs>
</svg>